<svg xmlns="http://www.w3.org/2000/svg" data-name="Layer 3" viewBox="0 0 64 64"><path fill="#f4b2b0" d="M41 22V16l-5-5a7.954 7.954 0 01-7.385 5H21v6a10 10 0 0020 0zM24 44.7a1.986 1.986 0 00-.531-1.348 2 2 0 10-3.334-2.055 1.958 1.958 0 00-2.233.12A1.993 1.993 0 0016 40a1.905 1.905 0 00-.263.027A1.993 1.993 0 0012 41a2 2 0 00-2 2 2 2 0 00-1.732 3H23.514A1.989 1.989 0 0024 44.7z"/><rect width="6" height="8" x="51" y="50" fill="#f4b2b0" rx="2"/><rect width="6" height="8" x="7" y="50" fill="#f4b2b0" rx="2"/><rect width="14" height="4" x="43" y="43" fill="#f4b2b0"/><path fill="#b3404a" d="M41.809,24H42a3.987,3.987,0,0,0,2-7.444V11a5.008,5.008,0,0,0-4-4.9V6a5.006,5.006,0,0,0-5-5H28A10.011,10.011,0,0,0,18,11v5.556A3.987,3.987,0,0,0,20,24h.191a11.01,11.01,0,0,0,5.114,7.393l-2.786.7a11.191,11.191,0,0,0-7.444,6.127A2.945,2.945,0,0,0,14,38a3,3,0,0,0-2.871,2.129,3.012,3.012,0,0,0-2,2A3,3,0,0,0,7,45a1,1,0,0,0-.992,1.124L6.53,50.3A2.98,2.98,0,0,0,6,52v4a2.991,2.991,0,0,0,1.57,2.621l.438,3.5A1,1,0,0,0,9,63H23a1,1,0,0,0,.992-.876l2-16A1,1,0,0,0,25,45h-.027c.01-.1.027-.2.027-.3a2.964,2.964,0,0,0-.324-1.348A2.961,2.961,0,0,0,25,42a2.993,2.993,0,0,0-5.283-1.935,2.984,2.984,0,0,0-1.4.041,2.965,2.965,0,0,0-1.462-.979A9.2,9.2,0,0,1,23,34.03l3.171-.793a4.976,4.976,0,0,0,9.652,0L39,34.03A9.228,9.228,0,0,1,45.94,42H43a1,1,0,0,0-1,1v4a1,1,0,0,0,1,1h.124l1.883,14.132A1,1,0,0,0,46,63h8a1,1,0,0,0,.991-.868l.422-3.174A3,3,0,0,0,58,56V52a3,3,0,0,0-1.326-2.488l.2-1.512H57a1,1,0,0,0,1-1V43a1,1,0,0,0-1-1H51V33H49v9H47.954a11.228,11.228,0,0,0-8.473-9.911l-2.786-.7A11.01,11.01,0,0,0,41.809,24ZM19.935,47,19.06,61H17V47ZM15,61H12.939l-.163-2.6A2.987,2.987,0,0,0,14,56V52a3,3,0,0,0-1.794-2.743L12.064,47H15ZM9,57a1,1,0,0,1-1-1V52a1,1,0,0,1,1-1h2a1,1,0,0,1,1,1v4a1,1,0,0,1-1,1Zm1.061-10,.125,2H9a2.981,2.981,0,0,0-.609.063L8.133,47ZM9.633,59H10.81l.125,2H9.883Zm12.484,2H21.064l.875-14h1.928ZM17.6,42.365a1,1,0,0,0,.911-.157,1.055,1.055,0,0,1,1.109-.06,1,1,0,0,0,1.452-.5A1,1,0,0,1,23,42a.982.982,0,0,1-.268.671,1,1,0,0,0,0,1.354A.984.984,0,0,1,23,44.7a.9.9,0,0,1-.062.3H9a1,1,0,0,1,1-1,1,1,0,0,0,1-1,1,1,0,0,1,1-1,1,1,0,0,0,1-1,1,1,0,0,1,1-1,.987.987,0,0,1,.866.517,1,1,0,0,0,1,.5L16,41a.992.992,0,0,1,.947.708A1,1,0,0,0,17.6,42.365ZM56,56a1,1,0,0,1-1,1H53a1,1,0,0,1-1-1V52a1,1,0,0,1,1-1h2a1,1,0,0,1,1,1Zm-1.275-7H53a3,3,0,0,0-3,3v4a3,3,0,0,0,3,3h.392l-.266,2H46.874L45.142,48h9.716ZM56,46H44V44H56ZM42,22V18a2,2,0,0,1,0,4ZM20,11a8.009,8.009,0,0,1,8-8h7a3,3,0,0,1,3,3V7a1,1,0,0,0,1,1,3,3,0,0,1,3,3v5a1,1,0,0,0-.293-.707l-5-5a1,1,0,0,0-1.636.335A6.919,6.919,0,0,1,28.615,15H21a1,1,0,0,0-1,1Zm-2,9a2,2,0,0,1,2-2v4A2,2,0,0,1,18,20ZM31,35a3,3,0,0,1-2.94-2.411,10.721,10.721,0,0,0,5.88,0A3,3,0,0,1,31,35Zm0-4a9.01,9.01,0,0,1-9-9V17h6.615a8.9,8.9,0,0,0,7.659-4.312L40,16.414V22A9.01,9.01,0,0,1,31,31Z"/><rect width="2" height="13" x="40" y="50" fill="#b3404a"/></svg>